<svg id="Layer_1" data-name="Layer 1" xmlns="http://www.w3.org/2000/svg" xmlns:xlink="http://www.w3.org/1999/xlink" viewBox="0 0 500 500"><defs><style>.cls-1{fill:url(#linear-gradient);}.cls-2{fill:url(#linear-gradient-2);}.cls-3{fill:#fff;}</style><linearGradient id="linear-gradient" y1="250" x2="483.75" y2="250" gradientUnits="userSpaceOnUse"><stop offset="0" stop-color="#15b493"/><stop offset="1" stop-color="#059376"/></linearGradient><linearGradient id="linear-gradient-2" x1="308.01" y1="82.04" x2="308.01" y2="429.44" xlink:href="#linear-gradient"/></defs><path class="cls-1" d="M483.75,161.84s-115.93-249-358.13-129.3c0,0-130.21,66.85-125.5,220a264.31,264.31,0,0,0,112.3,208.12c32.35,22.64,73,40.43,120.33,39.28,5.79-.14,11.58-.11,17.37,0,33.53.83,157.13-5.67,222.37-139.59a6.62,6.62,0,0,0-4.85-9.49c-4.09-.55-10.67,1.4-21.16,9.87a62.79,62.79,0,0,0-5.5,5.07c-15.49,16-112,109.75-208.32,72.46-2.86-1.1-5.77-2.08-8.71-3l-.32-.1c-23.91-7.51-20.33-42.35,4.59-45q2.91-.32,6.19-.38a21.37,21.37,0,0,1,2.88.14c9.81,1.08,73.53,6.12,98-41.9,0,0,16.25-32.88-31.38-14.41-33.08,12.83-54.94,8.2-65.21,4.17a125.75,125.75,0,0,0-30.4-8c-17.61-2.2-42-2.67-62.42,6.4-36.55,16.25-68.67-35.1-68.67-35.1s-41.72-58.73,26.21-180.64c0,0,61.11-100.48,202.33-85.52C305.79,34.94,435.76,47.13,483.75,161.84Z" transform="translate(0 0)"/><path class="cls-2" d="M161.06,314.56V235H116L311,82l61.29,50.24.74-15.51h57.6v61.32L500,235.72H455.69v99.66a1.83,1.83,0,0,1-1.38,1.79c-4.67,1.15-21.71,7.92-60.64,47.79-46.89,48-109.75,44.24-109.75,44.24s-39.59,3.19-65.47-13.59a5.91,5.91,0,0,1,1-10.48c4.08-1.55,11.06-2.33,23-.87C274,408.14,304.13,396,304.13,396s58.71-30.2,48.46-67.05c0,0-6.92-25.21-45.69-11.08,0,0-37.9,16.74-72.42,3.36a96.63,96.63,0,0,0-29-6.6C195.48,314,181.19,313.74,161.06,314.56Z" transform="translate(0 0)"/><rect class="cls-3" x="255.95" y="189.82" width="48.74" height="48.76"/><rect class="cls-3" x="313.82" y="189.82" width="48.74" height="48.76"/><rect class="cls-3" x="255.95" y="247.17" width="48.74" height="48.76"/><rect class="cls-3" x="313.82" y="247.17" width="48.74" height="48.76"/></svg>