<svg id="Layer_1" data-name="Layer 1" xmlns="http://www.w3.org/2000/svg" xmlns:xlink="http://www.w3.org/1999/xlink" viewBox="0 0 244.34 500"><defs><style>.cls-1{fill:url(#linear-gradient);}.cls-2{fill:url(#linear-gradient-2);}.cls-3{fill:#fff;}</style><linearGradient id="linear-gradient" x1="122.17" y1="126.19" x2="122.17" gradientUnits="userSpaceOnUse"><stop offset="0" stop-color="#15b493"/><stop offset="1" stop-color="#059376"/></linearGradient><linearGradient id="linear-gradient-2" x1="250" y1="500" x2="250" y2="140.52" gradientUnits="userSpaceOnUse"><stop offset="0" stop-color="#059376"/><stop offset="1" stop-color="#15b493"/></linearGradient></defs><circle class="cls-1" cx="122.17" cy="63.1" r="63.1"/><path class="cls-2" d="M344.39,140.52H155.61a27.86,27.86,0,0,0-27.78,27.78v136a27.86,27.86,0,0,0,27.78,27.78h27V472.22A27.86,27.86,0,0,0,210.41,500h79.18a27.86,27.86,0,0,0,27.78-27.78V332.08h27a27.86,27.86,0,0,0,27.78-27.78v-136A27.86,27.86,0,0,0,344.39,140.52Z" transform="translate(-127.83)"/><path class="cls-3" d="M306.25,169.13a36.13,36.13,0,1,1-36.13,36.12,36.16,36.16,0,0,1,36.13-36.12m0-9a45.13,45.13,0,1,0,45.12,45.12,45.13,45.13,0,0,0-45.12-45.12Z" transform="translate(-127.83)"/><rect class="cls-3" x="170.92" y="180.25" width="15" height="50"/><rect class="cls-3" x="153.42" y="197.75" width="50" height="15"/></svg>