<svg width="91" height="101" viewBox="0 0 91 101" fill="none" xmlns="http://www.w3.org/2000/svg">
<path fill-rule="evenodd" clip-rule="evenodd" d="M31.1547 59.2116C30.0208 57.2111 29.0566 55.0999 28.2741 52.9046C22.0771 49.0635 21.0874 31.9818 24.906 33.2757C24.906 32.6328 24.8026 30.8343 24.8026 29.5973C24.8026 1.87108 65.2343 1.8548 65.2343 29.5973C65.2343 30.8668 65.1161 32.6328 65.1309 33.2757C68.9421 31.9573 67.9524 49.039 61.7628 52.9046C60.1896 57.706 57.3829 60.9287 57.6118 63.0364C57.6118 70.2711 50.3956 72.8916 45.0554 72.9567C44.5679 72.9567 44.073 72.9567 43.5782 72.8753C44.7504 72.5321 45.8739 72.0117 46.9167 71.3291C49.2138 69.7829 50.7649 67.4961 50.7649 64.7536C50.7649 62.0111 49.2212 59.708 46.9241 58.1699C44.8185 56.8082 42.4226 56.0865 39.9811 56.0784C38.0846 56.0395 36.1996 56.4128 34.4341 57.1771C33.3387 57.6669 32.3365 58.3791 31.4797 59.2767H31.2064L31.1547 59.2116ZM74.1789 25.7318H73.9056C71.3722 13.9072 64.8576 5.70409 57.0948 2.31053C52.5504 0.420199 47.6795 -0.325027 42.8396 0.129542C38.0724 0.539542 33.4344 2.03599 29.2195 4.52407C25.6987 6.67598 22.695 9.723 20.4584 13.4117C18.2217 17.1004 16.8167 21.3242 16.3603 25.7318H15.8506C13.4132 25.7318 10.9462 27.9372 10.9462 30.6146V48.2497C10.9462 50.9352 13.4132 53.1325 15.8506 53.1325H17.2909C18.8642 60.1719 25.2384 66.6172 31.7604 66.6172H33.0382C34.1535 68.4238 36.3176 69.7015 39.922 69.7015C43.5265 69.7015 47.3673 67.4635 47.3673 64.7129C47.3673 61.9622 43.5782 59.7324 39.922 59.7324C36.2659 59.7324 34.0501 61.0426 32.9717 62.9306H31.7604C26.1912 62.9306 20.6812 56.4202 20.2897 50.5446V26.0491C20.7056 22.3637 21.9023 18.8376 23.7833 15.7558C25.6643 12.674 28.1768 10.1228 31.1178 8.30825C34.8403 6.12738 38.9315 4.81692 43.135 4.45897C47.3788 4.0566 51.6506 4.70158 55.6397 6.34699C62.073 9.14647 67.5019 16.1126 69.8433 25.7318H69.7472V53.1325H74.1789C76.6163 53.1325 79.0833 50.9352 79.0833 48.2497V30.6227C79.0833 27.929 76.6163 25.7399 74.1789 25.7399V25.7318ZM47.707 85.001H49.0808C49.6685 85.001 50.2321 84.7437 50.6477 84.2859C51.0632 83.828 51.2967 83.2071 51.2967 82.5596V78.4905C51.2967 77.843 51.0632 77.2221 50.6477 76.7642C50.2321 76.3064 49.6685 76.0491 49.0808 76.0491H40.9561C40.3714 76.0596 39.8133 76.3202 39.3998 76.7758C38.9863 77.2314 38.7498 77.8463 38.7403 78.4905V82.5596C38.7516 83.2031 38.9887 83.8169 39.4018 84.2721C39.8149 84.7272 40.372 84.9885 40.9561 85.001H42.3225L39.634 99.9993H50.2774L47.707 84.9928V85.001ZM0 100.007C1.05622 84.9196 -1.63234 85.5299 9.83833 80.8017C15.7001 78.434 21.3359 75.4355 26.6639 71.8499L36.4653 100.032L0 100.007ZM63.8162 70.5397C68.6816 73.9445 73.9083 76.6777 79.3788 78.6777C90.0886 82.6002 90.0886 83.1536 89.9852 99.9749H53.6602L63.8162 70.5397Z" fill="url(#paint0_linear_10_85)"/>
<defs>
<linearGradient id="paint0_linear_10_85" x1="45.0015" y1="0" x2="45.0015" y2="100.032" gradientUnits="userSpaceOnUse">
<stop stop-color="#13B493"/>
<stop offset="1" stop-color="#059376"/>
</linearGradient>
</defs>
</svg>
