<svg width="90" height="100" viewBox="0 0 90 100" fill="none" xmlns="http://www.w3.org/2000/svg">
<path fill-rule="evenodd" clip-rule="evenodd" d="M24.064 34.1131C30.5774 41.1152 40.6421 31.9414 50.4506 29.3766C56.0165 27.9146 59.0128 37.8151 66.1921 34.1986L66.8665 42.03C71.3311 41.0212 68.1555 54.8117 64.2799 54.0936C63.0079 58.3085 62.5213 61.2924 60.4384 64.0881C56.5287 69.3205 50.2116 71.988 45.1494 71.8768C40.3689 71.7742 34.2909 69.1409 30.3982 64.3189C27.9994 61.3522 27.2226 58.0863 25.7372 53.5293C21.614 54.7604 18.8482 40.7647 23.3299 41.9616L24.064 34.1131ZM52.3457 12.2602V13.9872C52.3457 14.7909 51.6884 15.4406 50.8945 15.4406H47.9665V18.3732C47.9665 19.1768 47.3091 19.8266 46.5152 19.8266H44.7909C43.9884 19.8266 43.3396 19.1683 43.3396 18.3732V15.4406H40.4116C39.6091 15.4406 38.9604 14.7823 38.9604 13.9872V12.2602C38.9604 11.4565 39.6177 10.8067 40.4116 10.8067H43.3396V7.86567C43.3396 7.062 43.997 6.41223 44.7909 6.41223H46.5152C47.3177 6.41223 47.9665 7.07055 47.9665 7.86567V10.7982H50.8945C51.6884 10.8067 52.3457 11.4565 52.3457 12.2602ZM35.2555 0H56.0335C56.7506 0 57.5018 0.102595 58.2445 0.299237C59.8494 0.718169 61.3604 1.58168 62.4872 2.72733C63.7592 4.03543 64.5787 5.70261 64.5787 7.56643C64.5787 8.07086 64.5104 8.60949 64.3652 9.17376L62.4274 16.5948C63.0165 17.2361 63.5799 17.9286 64.1006 18.6724C75.5653 34.9851 79.3726 64.3617 60.5409 68.1492C63.0421 69.7651 66.1067 70.0386 69.2567 69.8591C76.3132 70.0372 82.8826 72.3357 86.8769 77.3531C89.7524 80.9652 90 85.8632 90 90.4801V95.2379C89.9915 97.7087 88.5146 99.4015 84.989 100L49.293 99.9914L57.4165 68.7306C56.3494 69.5513 55.2226 70.2609 54.0701 70.8509C51.1079 72.3642 47.9323 73.0994 45.1238 73.0396C42.4689 72.9797 39.447 72.1932 36.5872 70.7312C35.2896 70.0643 34.0177 69.2521 32.8226 68.3031L32.4811 68.2261L40.9409 99.9914H5.01098C1.48537 99.393 0.0170732 97.7001 0 95.2293V90.4524C0 85.8537 0.244218 80.9762 3.10113 77.3726C7.09251 72.338 13.676 70.0375 20.7433 69.8591C24.1665 70.0557 27.4872 69.6967 30.1165 67.6875C20.4274 65.285 16.3213 61.8481 16.3213 47.972V43.2355C16.9274 32.8563 19.5396 23.6654 25.1226 16.9454C25.9506 15.9451 27.0091 15.0132 28.2469 14.1668L26.9409 9.17376C26.7957 8.60949 26.7274 8.07086 26.7274 7.56643C26.7274 5.70261 27.5384 4.03543 28.8189 2.72733C29.9372 1.58168 31.4567 0.718169 33.0531 0.299237C33.7872 0.102595 34.5299 0 35.2555 0ZM35.2555 2.93253H56.0335C59.0555 2.93253 62.2909 5.50597 61.5226 8.42994L59.9774 14.3377L58.936 18.3133C58.1762 21.2373 56.4604 23.8107 53.447 23.8107H37.825C34.8116 23.8107 33.0957 21.2373 32.336 18.3133L30.8506 12.6193L29.7579 8.42139C28.9982 5.50597 32.2335 2.93253 35.2555 2.93253ZM61.5994 91.9086H72.6116V94.5505H61.5994V91.9086ZM41.9359 100L38.7828 86.6249C43.1791 87.5569 46.478 87.6509 51.3951 86.6249L48.242 100H41.9359ZM42.7933 54.9742C42.5287 54.7262 42.5116 54.2988 42.7506 54.0252C42.9896 53.7516 43.3909 53.7345 43.6555 53.9824C44.1165 54.427 44.5604 54.6407 44.9787 54.6322C45.4055 54.6236 45.8579 54.4014 46.3274 53.9653C46.5921 53.7259 47.0018 53.7516 47.2323 54.0337C47.4628 54.3159 47.4372 54.7433 47.164 54.9827C46.464 55.6239 45.7384 55.9659 44.9872 55.9745C44.236 55.9916 43.5104 55.6667 42.7933 54.9742ZM59.5506 42.0044C59.8238 42.2438 59.8579 42.6713 59.636 42.9534C59.414 43.2441 59.0043 43.2783 58.7311 43.0474C57.5104 41.9787 55.1031 42.4404 53.0287 42.8337C51.9445 43.0389 50.9457 43.227 50.1518 43.2013C49.8018 43.1842 49.5201 42.8764 49.5372 42.5003C49.5457 42.1241 49.8445 41.8334 50.2031 41.8505C50.8604 41.8761 51.7909 41.6966 52.8067 41.5085C55.1457 41.0554 57.8774 40.5338 59.5506 42.0044ZM37.3043 47.8609C37.364 48.0404 37.3982 48.2285 37.3982 48.4252C37.3982 49.34 36.6982 50.0752 35.836 50.0752C34.9738 50.0752 34.2738 49.34 34.2738 48.4252C34.2738 48.1003 34.3591 47.7925 34.5128 47.5445C33.6506 47.5958 32.7884 47.7925 31.9177 48.1516C31.6189 48.2798 31.286 48.0832 31.1835 47.7241C31.0811 47.365 31.2433 46.9632 31.5421 46.8435C32.703 46.3647 33.8726 46.1424 35.0506 46.151C36.2201 46.1595 37.3811 46.3989 38.5421 46.8435C38.8494 46.9546 39.0116 47.3479 38.9177 47.7155C38.8238 48.0832 38.4994 48.2884 38.1921 48.1687C37.9018 48.049 37.603 47.9464 37.3043 47.8609ZM52.747 47.7155C52.6957 47.8865 52.6616 48.0661 52.6616 48.2542C52.6616 49.169 53.3616 49.9042 54.2238 49.9042C55.086 49.9042 55.786 49.169 55.786 48.2542C55.786 47.9635 55.7177 47.6899 55.5896 47.459C56.4433 47.5189 57.297 47.6899 58.1677 47.9891C58.475 48.0917 58.7909 47.878 58.8762 47.5103C58.9616 47.1427 58.7823 46.758 58.4835 46.6554C57.314 46.2535 56.1531 46.0484 54.9835 46.0569C53.8226 46.0569 52.6701 46.2621 51.5262 46.6639C51.2189 46.7665 51.0482 47.1513 51.1335 47.5189C51.2189 47.8865 51.5433 48.1003 51.8421 47.9891C52.1494 47.8865 52.4482 47.7925 52.747 47.7155ZM31.3287 43.2184C31.0555 43.4578 30.6543 43.4151 30.4238 43.1244C30.2018 42.8337 30.236 42.4148 30.5091 42.1754C32.1823 40.7134 34.914 41.2264 37.253 41.6795C38.2689 41.8761 39.1994 42.0471 39.8567 42.0215C40.2067 42.0044 40.5055 42.3036 40.5226 42.6712C40.5311 43.0474 40.2579 43.3552 39.9079 43.3723C39.114 43.398 38.1152 43.2099 37.0311 43.0047C34.9652 42.6114 32.5494 42.1497 31.3287 43.2184ZM39.4555 60.5314C39.1823 60.3006 39.1396 59.8731 39.3616 59.5824C39.5835 59.2918 39.9848 59.249 40.2579 59.4798C42.0165 60.9675 43.6555 61.6942 45.2006 61.6856C46.7116 61.6771 48.1628 60.9504 49.5543 59.5226C49.8104 59.2661 50.2116 59.2661 50.4591 59.5397C50.7067 59.8047 50.6982 60.2322 50.4421 60.4972C48.8116 62.1815 47.0616 63.0365 45.2006 63.045C43.3567 63.045 41.4445 62.2157 39.4555 60.5314Z" fill="url(#paint0_linear_10_84)"/>
<defs>
<linearGradient id="paint0_linear_10_84" x1="45" y1="0" x2="45" y2="100" gradientUnits="userSpaceOnUse">
<stop stop-color="#13B493"/>
<stop offset="1" stop-color="#059376"/>
</linearGradient>
</defs>
</svg>
